<svg width="216" height="213" viewBox="0 0 216 213" fill="none" xmlns="http://www.w3.org/2000/svg">
<g clip-path="url(#clip0_107_5)">
<path d="M214.73 78.9891C210.922 62.3264 199.754 50.6824 189.776 52.9636C181.901 54.7687 134.055 85.4757 114.318 98.3099C131.199 81.9249 171.804 42.113 175.315 34.833C179.758 25.609 170.872 12.14 155.498 4.72116C140.105 -2.67787 124.038 -1.20997 119.594 7.99418C116.083 15.294 110.271 71.848 107.99 95.2551C105.709 71.848 99.8965 15.2742 96.3854 7.99418C91.9421 -1.20997 75.8745 -2.67787 60.4813 4.72116C45.0882 12.1202 36.2212 25.609 40.6646 34.833C44.1757 42.1329 84.7811 81.9249 101.662 98.3099C81.9246 85.4955 34.0789 54.7687 26.2038 52.9834C16.226 50.7022 5.05804 62.3661 1.24943 79.009C-2.55918 95.6717 2.45946 111.005 12.4372 113.286C20.3123 115.092 76.7473 108.169 100.095 105.173C77.7788 112.612 23.9226 130.862 17.5947 135.9C9.60061 142.287 11.743 158.276 22.3952 171.626C33.0474 184.976 48.1628 190.629 56.1569 184.242C62.4848 179.203 92.2594 130.762 104.459 110.668C96.3656 132.746 77.0448 186.225 77.0448 194.319C77.0448 204.554 90.8907 212.846 107.97 212.846C125.049 212.846 138.895 204.554 138.895 194.319C138.895 186.225 119.594 132.766 111.481 110.668C123.7 130.782 153.475 179.203 159.783 184.242C167.777 190.629 182.893 184.956 193.545 171.626C204.197 158.296 206.339 142.287 198.345 135.9C192.017 130.862 138.181 112.612 115.845 105.173C139.193 108.149 195.608 115.072 203.503 113.286C213.52 111.005 218.519 95.6518 214.71 79.009L214.73 78.9891Z" fill="url(#paint0_linear_107_5)"/>
</g>
<defs>
<linearGradient id="paint0_linear_107_5" x1="107.981" y1="0.00497437" x2="107.981" y2="212.846" gradientUnits="userSpaceOnUse">
<stop stop-color="#2E86FF"/>
<stop offset="1" stop-color="#0058D1"/>
</linearGradient>
<clipPath id="clip0_107_5">
<rect width="216" height="212.826" fill="white"/>
</clipPath>
</defs>
</svg>
